<?xml version="1.0" encoding="utf-8"?>
<svg xmlns="http://www.w3.org/2000/svg" style="margin: auto; background: rgb(241, 242, 243); display: block; shape-rendering: auto;" width="103" height="22" preserveAspectRatio="xMidYMid">
<style type="text/css">
  text {
    text-anchor: middle; font-size: 15px; opacity: 0;
  }
</style>
<g style="transform-origin:51.5px 11px;transform:scale(1)">
<g transform="translate(51.5,11)">
  <g transform="translate(-2,0)"><g class="path" style="opacity: 1; transform-origin: -40.46px -0.90342px; animation: 3.44828s linear 0s infinite normal forwards running fade-0db7486e-dabe-4172-9fb4-78524eea7e17;"><path d="M1.36 0.12L0.15-0.38L4.26-10.50L5.82-10.50L9.87-0.38L8.56 0.15L7.39-2.85L2.53-2.85L1.36 0.12zM4.96-9.09L2.98-4.05L6.93-4.05L4.96-9.09" fill="#434343" stroke="none" stroke-width="none" transform="translate(-45.469970703125,4.271580139160152)" style="fill: rgb(67, 67, 67);"></path></g><g class="path" style="opacity: 1; transform-origin: -28.55px 0.28158px; animation: 3.44828s linear -0.0655172s infinite normal forwards running fade-0db7486e-dabe-4172-9fb4-78524eea7e17;"><path d="M12.52-7.80L12.52-6.50L12.52-6.50Q12.95-7.13 13.58-7.55L13.58-7.55L13.58-7.55Q14.22-7.98 15.06-7.98L15.06-7.98L15.06-7.98Q15.99-7.98 16.57-7.54L16.57-7.54L16.57-7.54Q17.16-7.09 17.41-6.33L17.41-6.33L17.41-6.33Q17.88-7.02 18.52-7.50L18.52-7.50L18.52-7.50Q19.16-7.98 20.10-7.98L20.10-7.98L20.10-7.98Q20.73-7.98 21.20-7.77L21.20-7.77L21.20-7.77Q21.67-7.56 21.99-7.18L21.99-7.18L21.99-7.18Q22.30-6.79 22.46-6.26L22.46-6.26L22.46-6.26Q22.62-5.73 22.62-5.08L22.62-5.08L22.62 0L21.27 0L21.27-4.98L21.27-4.98Q21.27-5.79 20.89-6.29L20.89-6.29L20.89-6.29Q20.52-6.79 19.86-6.79L19.86-6.79L19.86-6.79Q19.52-6.79 19.20-6.66L19.20-6.66L19.20-6.66Q18.88-6.52 18.60-6.29L18.60-6.29L18.60-6.29Q18.31-6.06 18.06-5.75L18.06-5.75L18.06-5.75Q17.80-5.44 17.59-5.12L17.59-5.12L17.59 0L16.24 0L16.24-4.98L16.24-4.98Q16.24-5.79 15.87-6.29L15.87-6.29L15.87-6.29Q15.49-6.79 14.83-6.79L14.83-6.79L14.83-6.79Q14.50-6.79 14.19-6.67L14.19-6.67L14.19-6.67Q13.88-6.54 13.58-6.31L13.58-6.31L13.58-6.31Q13.29-6.09 13.04-5.79L13.04-5.79L13.04-5.79Q12.78-5.49 12.57-5.16L12.57-5.16L12.57 0L11.22 0L11.22-7.80L12.52-7.80" fill="#434343" stroke="none" stroke-width="none" transform="translate(-45.469970703125,4.271580139160152)" style="fill: rgb(67, 67, 67);"></path></g><g class="path" style="opacity: 1; transform-origin: -17.245px 0.37158px; animation: 3.44828s linear -0.131034s infinite normal forwards running fade-0db7486e-dabe-4172-9fb4-78524eea7e17;"><path d="M30.73-3.90L30.73-3.90L30.73-3.90Q30.73-4.48 30.55-5.01L30.55-5.01L30.55-5.01Q30.36-5.54 30.02-5.92L30.02-5.92L30.02-5.92Q29.68-6.31 29.23-6.55L29.23-6.55L29.23-6.55Q28.77-6.78 28.23-6.78L28.23-6.78L28.23-6.78Q27.04-6.78 26.38-6L26.38-6L26.38-6Q25.72-5.22 25.72-3.93L25.72-3.93L25.72-3.93Q25.72-3.34 25.91-2.81L25.91-2.81L25.91-2.81Q26.10-2.28 26.44-1.88L26.44-1.88L26.44-1.88Q26.77-1.48 27.23-1.25L27.23-1.25L27.23-1.25Q27.69-1.02 28.23-1.02L28.23-1.02L28.23-1.02Q28.81-1.02 29.28-1.23L29.28-1.23L29.28-1.23Q29.74-1.44 30.07-1.82L30.07-1.82L30.07-1.82Q30.39-2.21 30.56-2.73L30.56-2.73L30.56-2.73Q30.73-3.25 30.73-3.90zM24.34-3.90L24.34-3.90L24.34-3.90Q24.34-4.84 24.64-5.60L24.64-5.60L24.64-5.60Q24.94-6.36 25.46-6.88L25.46-6.88L25.46-6.88Q25.98-7.41 26.69-7.69L26.69-7.69L26.69-7.69Q27.40-7.98 28.23-7.98L28.23-7.98L28.23-7.98Q29.04-7.98 29.75-7.69L29.75-7.69L29.75-7.69Q30.46-7.41 30.99-6.88L30.99-6.88L30.99-6.88Q31.51-6.36 31.81-5.61L31.81-5.61L31.81-5.61Q32.11-4.86 32.11-3.93L32.11-3.93L32.11-3.93Q32.11-3 31.82-2.24L31.82-2.24L31.82-2.24Q31.53-1.48 31.00-0.94L31.00-0.94L31.00-0.94Q30.48-0.40 29.77-0.11L29.77-0.11L29.77-0.11Q29.05 0.18 28.23 0.18L28.23 0.18L28.23 0.18Q27.39 0.18 26.68-0.12L26.68-0.12L26.68-0.12Q25.96-0.42 25.45-0.96L25.45-0.96L25.45-0.96Q24.93-1.50 24.64-2.25L24.64-2.25L24.64-2.25Q24.34-3 24.34-3.90" fill="#434343" stroke="none" stroke-width="none" transform="translate(-45.469970703125,4.271580139160152)" style="fill: rgb(67, 67, 67);"></path></g><g class="path" style="opacity: 1; transform-origin: -9.63497px -1.18842px; animation: 3.44828s linear -0.196552s infinite normal forwards running fade-0db7486e-dabe-4172-9fb4-78524eea7e17;"><path d="M35.19-11.10L35.19-2.58L35.19-2.58Q35.19-1.77 35.53-1.38L35.53-1.38L35.53-1.38Q35.86-0.99 36.46-0.99L36.46-0.99L36.46-0.99Q36.75-0.99 37.02-1.06L37.02-1.06L37.02-1.06Q37.29-1.13 37.50-1.21L37.50-1.21L37.83-0.12L37.83-0.12Q37.56 0 37.16 0.09L37.16 0.09L37.16 0.09Q36.76 0.18 36.28 0.18L36.28 0.18L36.28 0.18Q35.76 0.18 35.32 0.03L35.32 0.03L35.32 0.03Q34.88-0.12 34.54-0.43L34.54-0.43L34.54-0.43Q34.21-0.75 34.03-1.24L34.03-1.24L34.03-1.24Q33.84-1.74 33.84-2.44L33.84-2.44L33.84-11.10L35.19-11.10" fill="#434343" stroke="none" stroke-width="none" transform="translate(-45.469970703125,4.271580139160152)" style="fill: rgb(67, 67, 67);"></path></g><g class="path" style="opacity: 1; transform-origin: -3.67497px 0.37158px; animation: 3.44828s linear -0.262069s infinite normal forwards running fade-0db7486e-dabe-4172-9fb4-78524eea7e17;"><path d="M45.19-3.34L39.73-3.34L39.73-3.34Q39.87-2.25 40.50-1.64L40.50-1.64L40.50-1.64Q41.13-1.02 42.16-1.02L42.16-1.02L42.16-1.02Q42.84-1.02 43.38-1.16L43.38-1.16L43.38-1.16Q43.92-1.30 44.41-1.53L44.41-1.53L44.73-0.38L44.73-0.38Q44.19-0.12 43.51 0.03L43.51 0.03L43.51 0.03Q42.84 0.18 42.00 0.18L42.00 0.18L42.00 0.18Q41.16 0.18 40.48-0.10L40.48-0.10L40.48-0.10Q39.81-0.38 39.34-0.89L39.34-0.89L39.34-0.89Q38.86-1.41 38.61-2.17L38.61-2.17L38.61-2.17Q38.35-2.92 38.35-3.90L38.35-3.90L38.35-3.90Q38.35-4.77 38.61-5.52L38.61-5.52L38.61-5.52Q38.86-6.27 39.33-6.82L39.33-6.82L39.33-6.82Q39.79-7.36 40.44-7.67L40.44-7.67L40.44-7.67Q41.08-7.98 41.88-7.98L41.88-7.98L41.88-7.98Q42.72-7.98 43.35-7.69L43.35-7.69L43.35-7.69Q43.98-7.41 44.40-6.92L44.40-6.92L44.40-6.92Q44.82-6.42 45.03-5.76L45.03-5.76L45.03-5.76Q45.24-5.10 45.24-4.37L45.24-4.37L45.24-4.37Q45.24-3.84 45.19-3.34L45.19-3.34zM41.85-6.81L41.85-6.81L41.85-6.81Q40.96-6.81 40.40-6.21L40.40-6.21L40.40-6.21Q39.84-5.61 39.72-4.44L39.72-4.44L43.99-4.44L43.99-4.44Q43.99-5.58 43.42-6.19L43.42-6.19L43.42-6.19Q42.85-6.81 41.85-6.81" fill="#434343" stroke="none" stroke-width="none" transform="translate(-45.469970703125,4.271580139160152)" style="fill: rgb(67, 67, 67);"></path></g><g class="path" style="opacity: 1; transform-origin: 5.00003px -1.18842px; animation: 3.44828s linear -0.327586s infinite normal forwards running fade-0db7486e-dabe-4172-9fb4-78524eea7e17;"><path d="M49.99 0.18L49.99 0.18L49.99 0.18Q49.27 0.18 48.64-0.10L48.64-0.10L48.64-0.10Q48.00-0.39 47.53-0.91L47.53-0.91L47.53-0.91Q47.05-1.44 46.78-2.18L46.78-2.18L46.78-2.18Q46.51-2.92 46.51-3.85L46.51-3.85L46.51-3.85Q46.51-4.74 46.79-5.50L46.79-5.50L46.79-5.50Q47.07-6.25 47.54-6.80L47.54-6.80L47.54-6.80Q48.01-7.35 48.64-7.67L48.64-7.67L48.64-7.67Q49.27-7.98 49.98-7.98L49.98-7.98L49.98-7.98Q50.76-7.98 51.32-7.67L51.32-7.67L51.32-7.67Q51.88-7.35 52.20-7.02L52.20-7.02L52.20-11.10L53.55-11.10L53.55-1.89L53.55-1.89Q53.55-1.32 53.83-1.15L53.83-1.15L53.83-1.15Q54.10-0.97 54.43-0.97L54.43-0.97L54.15 0.07L54.15 0.07Q52.72 0.07 52.41-1.06L52.41-1.06L52.41-1.06Q52.06-0.58 51.48-0.20L51.48-0.20L51.48-0.20Q50.89 0.18 49.99 0.18zM50.29-1.02L50.29-1.02L50.29-1.02Q50.85-1.02 51.35-1.28L51.35-1.28L51.35-1.28Q51.85-1.54 52.20-1.96L52.20-1.96L52.20-5.83L52.20-5.83Q51.91-6.19 51.41-6.50L51.41-6.50L51.41-6.50Q50.91-6.81 50.28-6.81L50.28-6.81L50.28-6.81Q49.74-6.81 49.30-6.58L49.30-6.58L49.30-6.58Q48.85-6.36 48.54-5.97L48.54-5.97L48.54-5.97Q48.22-5.58 48.06-5.05L48.06-5.05L48.06-5.05Q47.89-4.51 47.89-3.90L47.89-3.90L47.89-3.90Q47.89-3.27 48.07-2.75L48.07-2.75L48.07-2.75Q48.25-2.22 48.58-1.84L48.58-1.84L48.58-1.84Q48.90-1.45 49.34-1.24L49.34-1.24L49.34-1.24Q49.78-1.02 50.29-1.02" fill="#434343" stroke="none" stroke-width="none" transform="translate(-45.469970703125,4.271580139160152)" style="fill: rgb(67, 67, 67);"></path></g><g class="path" style="opacity: 1; transform-origin: 18.59px -0.97842px; animation: 3.44828s linear -0.393103s infinite normal forwards running fade-0db7486e-dabe-4172-9fb4-78524eea7e17;"><path d="M61.74-5.26L61.74-5.26L61.74-5.26Q61.74-4.32 61.99-3.55L61.99-3.55L61.99-3.55Q62.23-2.77 62.68-2.22L62.68-2.22L62.68-2.22Q63.12-1.67 63.73-1.36L63.73-1.36L63.73-1.36Q64.35-1.06 65.08-1.06L65.08-1.06L65.08-1.06Q65.82-1.06 66.36-1.24L66.36-1.24L66.36-1.24Q66.90-1.41 67.41-1.71L67.41-1.71L67.84-0.53L67.84-0.53Q67.29-0.22 66.58-0.02L66.58-0.02L66.58-0.02Q65.86 0.18 64.92 0.18L64.92 0.18L64.92 0.18Q63.88 0.18 63.04-0.20L63.04-0.20L63.04-0.20Q62.19-0.57 61.57-1.27L61.57-1.27L61.57-1.27Q60.96-1.96 60.62-2.96L60.62-2.96L60.62-2.96Q60.28-3.96 60.28-5.21L60.28-5.21L60.28-5.21Q60.28-6.40 60.62-7.41L60.62-7.41L60.62-7.41Q60.96-8.41 61.59-9.14L61.59-9.14L61.59-9.14Q62.22-9.87 63.11-10.28L63.11-10.28L63.11-10.28Q64.00-10.68 65.10-10.68L65.10-10.68L65.10-10.68Q65.86-10.68 66.47-10.54L66.47-10.54L66.47-10.54Q67.08-10.39 67.62-10.14L67.62-10.14L67.18-8.94L67.18-8.94Q66.72-9.16 66.23-9.30L66.23-9.30L66.23-9.30Q65.74-9.44 65.08-9.44L65.08-9.44L65.08-9.44Q64.36-9.44 63.75-9.16L63.75-9.16L63.75-9.16Q63.13-8.88 62.68-8.34L62.68-8.34L62.68-8.34Q62.23-7.80 61.99-7.03L61.99-7.03L61.99-7.03Q61.74-6.25 61.74-5.26" fill="#434343" stroke="none" stroke-width="none" transform="translate(-45.469970703125,4.271580139160152)" style="fill: rgb(67, 67, 67);"></path></g><g class="path" style="opacity: 1; transform-origin: 27.005px 0.37158px; animation: 3.44828s linear -0.458621s infinite normal forwards running fade-0db7486e-dabe-4172-9fb4-78524eea7e17;"><path d="M74.98-3.90L74.98-3.90L74.98-3.90Q74.98-4.48 74.80-5.01L74.80-5.01L74.80-5.01Q74.61-5.54 74.27-5.92L74.27-5.92L74.27-5.92Q73.93-6.31 73.48-6.55L73.48-6.55L73.48-6.55Q73.02-6.78 72.48-6.78L72.48-6.78L72.48-6.78Q71.29-6.78 70.63-6L70.63-6L70.63-6Q69.97-5.22 69.97-3.93L69.97-3.93L69.97-3.93Q69.97-3.34 70.16-2.81L70.16-2.81L70.16-2.81Q70.35-2.28 70.69-1.88L70.69-1.88L70.69-1.88Q71.02-1.48 71.48-1.25L71.48-1.25L71.48-1.25Q71.94-1.02 72.48-1.02L72.48-1.02L72.48-1.02Q73.06-1.02 73.53-1.23L73.53-1.23L73.53-1.23Q73.99-1.44 74.32-1.82L74.32-1.82L74.32-1.82Q74.64-2.21 74.81-2.73L74.81-2.73L74.81-2.73Q74.98-3.25 74.98-3.90zM68.59-3.90L68.59-3.90L68.59-3.90Q68.59-4.84 68.89-5.60L68.89-5.60L68.89-5.60Q69.19-6.36 69.71-6.88L69.71-6.88L69.71-6.88Q70.23-7.41 70.94-7.69L70.94-7.69L70.94-7.69Q71.65-7.98 72.48-7.98L72.48-7.98L72.48-7.98Q73.29-7.98 74.00-7.69L74.00-7.69L74.00-7.69Q74.71-7.41 75.24-6.88L75.24-6.88L75.24-6.88Q75.76-6.36 76.06-5.61L76.06-5.61L76.06-5.61Q76.36-4.86 76.36-3.93L76.36-3.93L76.36-3.93Q76.36-3 76.07-2.24L76.07-2.24L76.07-2.24Q75.78-1.48 75.25-0.94L75.25-0.94L75.25-0.94Q74.73-0.40 74.02-0.11L74.02-0.11L74.02-0.11Q73.30 0.18 72.48 0.18L72.48 0.18L72.48 0.18Q71.64 0.18 70.93-0.12L70.93-0.12L70.93-0.12Q70.21-0.42 69.70-0.96L69.70-0.96L69.70-0.96Q69.18-1.50 68.89-2.25L68.89-2.25L68.89-2.25Q68.59-3 68.59-3.90" fill="#434343" stroke="none" stroke-width="none" transform="translate(-45.469970703125,4.271580139160152)" style="fill: rgb(67, 67, 67);"></path></g><g class="path" style="opacity: 1; transform-origin: 35.01px 0.28158px; animation: 3.44828s linear -0.524138s infinite normal forwards running fade-0db7486e-dabe-4172-9fb4-78524eea7e17;"><path d="M82.80-7.89L82.39-6.50L82.39-6.50Q82.11-6.61 81.72-6.61L81.72-6.61L81.72-6.61Q81.30-6.61 80.90-6.43L80.90-6.43L80.90-6.43Q80.50-6.25 80.20-5.89L80.20-5.89L80.20-5.89Q79.89-5.54 79.70-4.97L79.70-4.97L79.70-4.97Q79.51-4.41 79.51-3.65L79.51-3.65L79.51 0L78.16 0L78.16-7.80L79.47-7.80L79.47-6.10L79.47-6.10Q79.60-6.46 79.83-6.81L79.83-6.81L79.83-6.81Q80.05-7.15 80.36-7.41L80.36-7.41L80.36-7.41Q80.67-7.67 81.07-7.82L81.07-7.82L81.07-7.82Q81.48-7.98 81.97-7.98L81.97-7.98L81.97-7.98Q82.20-7.98 82.42-7.96L82.42-7.96L82.42-7.96Q82.63-7.93 82.80-7.89L82.80-7.89" fill="#434343" stroke="none" stroke-width="none" transform="translate(-45.469970703125,4.271580139160152)" style="fill: rgb(67, 67, 67);"></path></g><g class="path" style="opacity: 1; transform-origin: 41.66px -1.18842px; animation: 3.44828s linear -0.589655s infinite normal forwards running fade-0db7486e-dabe-4172-9fb4-78524eea7e17;"><path d="M86.65 0.18L86.65 0.18L86.65 0.18Q85.93 0.18 85.30-0.10L85.30-0.10L85.30-0.10Q84.66-0.39 84.19-0.91L84.19-0.91L84.19-0.91Q83.71-1.44 83.44-2.18L83.44-2.18L83.44-2.18Q83.17-2.92 83.17-3.85L83.17-3.85L83.17-3.85Q83.17-4.74 83.45-5.50L83.45-5.50L83.45-5.50Q83.73-6.25 84.20-6.80L84.20-6.80L84.20-6.80Q84.67-7.35 85.30-7.67L85.30-7.67L85.30-7.67Q85.93-7.98 86.64-7.98L86.64-7.98L86.64-7.98Q87.42-7.98 87.98-7.67L87.98-7.67L87.98-7.67Q88.54-7.35 88.86-7.02L88.86-7.02L88.86-11.10L90.21-11.10L90.21-1.89L90.21-1.89Q90.21-1.32 90.49-1.15L90.49-1.15L90.49-1.15Q90.76-0.97 91.09-0.97L91.09-0.97L90.81 0.07L90.81 0.07Q89.38 0.07 89.07-1.06L89.07-1.06L89.07-1.06Q88.72-0.58 88.14-0.20L88.14-0.20L88.14-0.20Q87.55 0.18 86.65 0.18zM86.95-1.02L86.95-1.02L86.95-1.02Q87.51-1.02 88.01-1.28L88.01-1.28L88.01-1.28Q88.51-1.54 88.86-1.96L88.86-1.96L88.86-5.83L88.86-5.83Q88.57-6.19 88.07-6.50L88.07-6.50L88.07-6.50Q87.57-6.81 86.94-6.81L86.94-6.81L86.94-6.81Q86.40-6.81 85.96-6.58L85.96-6.58L85.96-6.58Q85.51-6.36 85.20-5.97L85.20-5.97L85.20-5.97Q84.88-5.58 84.72-5.05L84.72-5.05L84.72-5.05Q84.55-4.51 84.55-3.90L84.55-3.90L84.55-3.90Q84.55-3.27 84.73-2.75L84.73-2.75L84.73-2.75Q84.91-2.22 85.24-1.84L85.24-1.84L85.24-1.84Q85.56-1.45 86.00-1.24L86.00-1.24L86.00-1.24Q86.44-1.02 86.95-1.02" fill="#434343" stroke="none" stroke-width="none" transform="translate(-45.469970703125,4.271580139160152)" style="fill: rgb(67, 67, 67);"></path></g></g>
</g>
</g>
<style id="fade-0db7486e-dabe-4172-9fb4-78524eea7e17" data-anikit="">@keyframes fade-0db7486e-dabe-4172-9fb4-78524eea7e17
{
  0% {
    animation-timing-function: cubic-bezier(0.2057,0.573,0.3723,0.9184);
    opacity: 1;
  }
  100% {
    opacity: 0;
  }
}</style></svg>
